<?xml version="1.0" encoding="UTF-8" standalone="no"?>
<!-- Generator: Adobe Illustrator 25.0.0, SVG Export Plug-In . SVG Version: 6.00 Build 0)  -->

<svg
   version="1.1"
   id="Capa_1"
   x="0px"
   y="0px"
   viewBox="0 0 512 512"
   xml:space="preserve"
   width="512"
   height="512"
   xmlns="http://www.w3.org/2000/svg"
   xmlns:svg="http://www.w3.org/2000/svg"><defs
   id="defs13" />
<g
   id="g8"
   style="fill:#3e3e3e;fill-opacity:1">
	<path
   d="M 228.267,56 C 210.812,18.886 166.575,2.95 129.462,20.405 113.814,27.765 101.226,40.353 93.867,56 H 32 C 14.327,56 0,70.327 0,88 v 0 c 0,17.673 14.327,32 32,32 h 61.76 c 17.455,37.114 61.692,53.05 98.805,35.595 C 208.212,148.236 220.8,135.647 228.16,120 H 480 c 17.673,0 32,-14.327 32,-32 v 0 C 512,70.327 497.673,56 480,56 Z"
   id="path2"
   style="fill:#3e3e3e;fill-opacity:1" />
	<path
   d="M 351.04,181.333 C 322.275,181.384 296.109,197.992 283.819,224 H 32 C 14.327,224 0,238.327 0,256 v 0 c 0,17.673 14.327,32 32,32 h 251.733 c 17.455,37.114 61.692,53.05 98.805,35.595 15.647,-7.359 28.235,-19.948 35.595,-35.595 H 480 c 17.673,0 32,-14.327 32,-32 v 0 c 0,-17.673 -14.327,-32 -32,-32 h -61.76 c -12.287,-26.001 -38.442,-42.607 -67.2,-42.667 z"
   id="path4"
   style="fill:#3e3e3e;fill-opacity:1" />
	<path
   d="M 160.96,349.333 C 132.202,349.392 106.047,365.999 93.76,392 H 32 C 14.327,392 0,406.327 0,424 v 0 c 0,17.673 14.327,32 32,32 h 61.76 c 17.455,37.114 61.692,53.05 98.805,35.595 C 208.212,484.236 220.8,471.647 228.16,456 H 480 c 17.673,0 32,-14.327 32,-32 v 0 c 0,-17.673 -14.327,-32 -32,-32 H 228.267 C 215.963,365.965 189.756,349.352 160.96,349.333 Z"
   id="path6"
   style="fill:#3e3e3e;fill-opacity:1" />
</g>















</svg>
